<?xml version="1.0" standalone="no"?>
<!DOCTYPE svg PUBLIC "-//W3C//DTD SVG 20010904//EN"
 "http://www.w3.org/TR/2001/REC-SVG-20010904/DTD/svg10.dtd">
<svg version="1.0" xmlns="http://www.w3.org/2000/svg"
 width="500.000000pt" height="500.000000pt" viewBox="0 0 500.000000 500.000000"
 preserveAspectRatio="xMidYMid meet">
<metadata>
Created by potrace 1.14, written by Peter Selinger 2001-2017
</metadata>
<g transform="translate(0.000000,500.000000) scale(0.100000,-0.100000)"
fill="#000000" stroke="none">
<path d="M2350 4989 c-483 -27 -960 -203 -1355 -499 -129 -96 -389 -356 -485
-485 -299 -398 -473 -874 -498 -1361 -36 -673 170 -1268 623 -1804 325 -384
851 -688 1365 -788 203 -40 265 -46 490 -47 313 0 519 32 802 125 583 192
1069 595 1381 1145 234 414 341 879 315 1369 -25 487 -199 963 -498 1361 -96
129 -356 389 -485 485 -383 287 -874 472 -1314 495 -58 3 -128 7 -156 9 -27 1
-111 -1 -185 -5z m780 -415 c0 -2 -9 0 -20 6 -11 6 -20 13 -20 16 0 2 9 0 20
-6 11 -6 20 -13 20 -16z m-830 -33 c0 -6 -4 -13 -10 -16 -5 -3 -10 1 -10 9 0
9 5 16 10 16 6 0 10 -4 10 -9z m-194 -12 c14 -23 -13 -29 -82 -20 -67 8 -67 9
-19 10 28 1 57 6 65 11 20 13 27 12 36 -1z m-276 -44 c0 -2 -9 -9 -20 -15 -12
-6 -20 -7 -20 -1 0 5 8 12 18 14 9 3 18 5 20 6 1 0 2 -1 2 -4z m-190 -115 c0
-5 -4 -10 -10 -10 -5 0 -10 5 -10 10 0 6 5 10 10 10 6 0 10 -4 10 -10z m1845
-121 c432 -247 772 -659 921 -1117 162 -499 127 -1037 -99 -1503 -98 -200
-246 -412 -371 -527 l-45 -41 -48 21 c-26 12 -75 36 -108 53 -33 18 -77 38
-98 45 -21 6 -48 26 -62 44 l-25 32 100 102 c54 56 114 123 132 148 31 43 107
94 141 94 7 0 26 14 43 31 24 25 35 30 64 26 19 -2 53 1 75 8 22 6 63 11 90
10 28 -1 42 0 32 2 -11 3 -30 14 -43 26 -20 17 -24 30 -24 72 0 35 6 60 18 76
10 13 24 40 32 59 8 19 24 46 38 60 13 13 35 49 49 80 16 33 50 78 85 111 32
31 58 62 58 68 0 10 -27 16 -57 12 -7 -1 -13 3 -13 9 0 7 -8 9 -19 5 -15 -5
-24 1 -35 24 -9 17 -16 36 -16 44 0 7 -11 28 -25 46 -13 19 -30 59 -36 90 -17
77 -40 101 -98 101 -79 1 -86 12 -86 148 0 64 1 120 3 125 2 4 12 -3 22 -15
17 -21 17 -13 -6 72 -15 52 -30 111 -35 130 -4 19 -24 74 -43 121 l-35 87 28
108 c19 76 28 132 27 184 -1 69 -3 75 -26 87 -16 8 -28 9 -34 3 -15 -15 -26
-12 -26 9 0 11 -20 31 -54 52 -54 34 -140 128 -170 188 -21 40 -122 179 -238
329 -48 61 -84 112 -80 112 4 0 48 -23 97 -51z m-2024 -56 c-50 -97 -103 -223
-112 -265 -6 -29 -17 -67 -25 -85 -8 -17 -14 -35 -14 -40 0 -5 -11 -38 -25
-73 -17 -44 -39 -78 -70 -107 -42 -39 -56 -63 -37 -63 4 0 23 16 42 35 49 51
81 46 42 -6 -26 -35 -42 -77 -36 -93 3 -7 -7 -27 -21 -42 -44 -47 -88 -117
-70 -110 9 3 18 0 21 -9 8 -19 -26 -114 -48 -139 -10 -11 -18 -25 -18 -31 0
-14 -39 -51 -49 -47 -3 2 -10 -16 -14 -40 -5 -24 -19 -54 -32 -68 -12 -14 -21
-30 -18 -36 2 -6 -5 -14 -17 -17 -13 -3 -22 -17 -26 -36 -4 -18 -14 -37 -24
-44 -17 -12 -40 -49 -40 -63 0 -5 5 -3 12 4 7 7 22 12 35 12 19 0 23 -5 23
-30 0 -17 -9 -39 -20 -50 -13 -13 -20 -33 -20 -61 0 -22 -4 -49 -10 -59 -12
-22 9 -69 27 -63 20 7 31 -212 12 -232 -14 -13 -68 18 -79 46 -7 16 -16 29
-20 29 -15 0 -50 109 -50 154 0 24 6 61 14 82 21 61 28 114 16 114 -6 0 -13
-8 -16 -17 -3 -10 -10 -26 -15 -35 -5 -10 -10 -59 -10 -109 -2 -87 0 -93 41
-176 25 -51 50 -87 60 -90 11 -3 24 -19 31 -37 7 -17 15 -35 17 -41 3 -5 -2
-4 -10 3 -14 11 -14 5 -1 -65 31 -162 114 -376 211 -538 75 -125 231 -309 330
-388 l33 -27 -25 -27 c-21 -22 -26 -24 -26 -10 0 22 -6 21 -60 -14 -49 -32
-243 -129 -258 -129 -15 0 -152 149 -216 234 -586 779 -525 1874 144 2580 102
107 238 222 340 288 81 52 95 57 81 31z m1129 -175 c86 -14 117 -26 157 -61
23 -20 33 -38 33 -58 0 -17 6 -32 15 -35 8 -4 15 -14 15 -24 0 -14 -9 -20 -31
-22 -18 -2 -37 -11 -43 -20 -8 -14 -4 -24 24 -53 27 -28 34 -42 33 -73 -1 -27
5 -44 24 -63 l25 -27 -46 -35 c-40 -30 -55 -35 -126 -41 -44 -4 -82 -11 -85
-16 -3 -4 -43 -18 -90 -31 -47 -12 -85 -26 -85 -30 0 -4 -6 -14 -14 -21 -13
-14 -28 -118 -16 -118 3 0 15 7 26 15 27 20 40 19 21 -3 -10 -10 -17 -23 -17
-29 0 -5 -11 -20 -25 -33 l-25 -24 6 33 c7 31 6 32 -19 20 -14 -6 -30 -25 -36
-40 -5 -16 -17 -29 -26 -29 -12 0 -15 -6 -10 -20 5 -17 2 -20 -22 -20 l-28 0
33 -20 c36 -22 38 -36 23 -168 -9 -77 6 -149 46 -224 9 -18 16 -36 16 -39 -2
-7 19 -18 89 -48 53 -22 69 -54 49 -97 -14 -31 -41 -32 -41 -1 0 60 -96 83
-159 37 -26 -18 -32 -28 -29 -54 2 -24 -2 -33 -20 -41 -26 -11 -24 -28 4 -34
10 -2 38 -16 62 -32 24 -16 47 -29 53 -29 5 0 28 -9 52 -19 127 -59 274 -83
334 -54 31 14 33 19 27 47 -3 17 -12 38 -20 47 -8 8 -14 20 -14 26 0 6 -22 38
-49 71 -49 62 -79 118 -67 129 3 3 29 -1 57 -10 87 -28 123 -17 53 16 -30 15
-34 20 -24 32 10 12 9 15 -4 15 -8 0 -34 7 -56 16 -32 13 -42 23 -51 55 -16
50 8 116 57 159 41 36 48 36 128 9 42 -15 68 -31 85 -53 13 -17 35 -39 47 -49
22 -16 24 -16 51 6 15 13 36 26 45 30 9 3 29 29 43 58 33 64 43 57 19 -13 -20
-57 -26 -118 -13 -118 5 0 9 -6 9 -13 0 -7 16 -30 35 -52 49 -58 93 -172 82
-217 -8 -32 9 -216 21 -231 17 -21 19 -305 2 -359 -14 -47 -8 -76 10 -48 7 10
10 -11 10 -62 0 -61 3 -78 14 -78 12 0 13 -6 4 -31 -7 -22 -7 -37 1 -55 9 -19
8 -24 -4 -24 -12 0 -15 -18 -15 -98 0 -87 -3 -104 -27 -153 -45 -91 -315 -340
-411 -379 -58 -24 -122 -64 -122 -77 0 -6 -8 -14 -18 -17 -10 -4 -28 -19 -40
-35 -11 -16 -55 -51 -97 -77 -62 -39 -75 -52 -71 -68 3 -11 0 -27 -7 -35 -9
-10 -9 -15 -1 -18 7 -2 10 -12 7 -22 -6 -24 -108 -46 -145 -32 -44 16 -287
253 -361 351 -117 156 -217 338 -217 397 0 18 7 72 14 120 31 188 31 198 -19
283 -66 113 -64 105 -91 315 -4 28 -12 57 -19 65 -7 8 -22 56 -33 105 -12 50
-35 146 -51 214 -28 115 -29 131 -20 200 12 83 24 111 81 189 44 60 46 60 107
64 44 3 73 28 32 28 -14 0 -21 6 -21 18 0 27 10 33 32 21 14 -7 23 -7 34 2 10
8 40 10 103 6 76 -6 94 -4 130 14 23 11 46 17 51 14 13 -8 23 59 17 107 -5 34
-2 41 13 45 11 3 22 13 25 23 3 10 12 21 20 24 20 7 19 57 -1 100 -22 45 -96
86 -155 86 l-44 0 30 -21 c17 -12 23 -19 15 -17 -8 3 -39 13 -69 23 -44 14
-75 17 -160 12 l-106 -5 45 18 c31 12 51 29 65 53 11 19 37 60 58 91 20 31 37
60 37 65 0 4 13 18 29 31 25 18 31 32 36 79 9 84 44 186 72 213 33 31 88 45
147 37 45 -5 103 4 181 29 35 12 200 6 295 -10z m-1066 -647 c3 -4 -12 -22
-34 -40 -47 -38 -54 -24 -10 19 33 33 36 34 44 21z m372 -82 c29 -27 25 -31
-46 -54 -77 -25 -110 -43 -105 -58 3 -6 -4 -18 -15 -24 -16 -11 -18 -10 -13 3
5 14 2 14 -26 -1 -18 -9 -34 -15 -36 -13 -14 17 -25 54 -25 85 0 34 5 42 43
67 39 26 47 27 120 23 64 -4 83 -10 103 -28z m902 12 c24 -15 -7 -48 -51 -55
-29 -5 -37 -10 -33 -21 11 -31 -61 -56 -116 -41 -15 5 -35 3 -46 -3 -25 -13
-36 0 -19 21 27 32 106 87 135 95 47 12 115 14 130 4z m-1401 -67 c16 -5 22
-13 21 -30 -2 -16 -7 -23 -16 -19 -8 3 -25 8 -38 11 -23 6 -31 23 -17 37 8 8
21 9 50 1z m963 -34 c0 -5 -4 -10 -9 -10 -6 0 -13 5 -16 10 -3 6 1 10 9 10 9
0 16 -4 16 -10z m-500 -9 c0 -11 -25 -21 -53 -21 -22 1 -22 1 -3 15 22 17 56
20 56 6z m1250 -22 c0 -5 -4 -9 -10 -9 -5 0 -10 7 -10 16 0 8 5 12 10 9 6 -3
10 -10 10 -16z m880 -56 c0 -7 -4 -13 -9 -13 -10 0 -21 25 -21 48 1 15 3 14
15 -2 8 -11 15 -26 15 -33z m-1336 -19 c9 -20 16 -37 14 -38 -41 -22 -77 -32
-93 -26 -19 7 -19 8 -2 15 11 5 16 14 12 25 -4 12 3 26 16 39 30 28 32 27 53
-15z m126 -14 c0 -5 -5 -10 -11 -10 -5 0 -7 5 -4 10 3 6 8 10 11 10 2 0 4 -4
4 -10z m1220 -25 c0 -8 -2 -15 -4 -15 -2 0 -6 7 -10 15 -3 8 -1 15 4 15 6 0
10 -7 10 -15z m-62 -71 c0 -18 -3 -22 -9 -13 -11 18 -11 39 0 39 5 0 9 -12 9
-26z m72 -184 c9 -16 8 -20 -5 -20 -8 0 -15 9 -15 20 0 11 2 20 5 20 2 0 9 -9
15 -20z m4 -81 c14 12 16 11 16 -5 0 -41 -16 -47 -39 -16 -11 17 -21 34 -21
38 0 4 6 -1 14 -11 12 -16 16 -17 30 -6z m210 -252 c6 -9 7 -19 3 -23 -9 -9
-37 15 -37 33 0 18 20 12 34 -10z m-3149 -494 c8 -20 13 -38 11 -40 -5 -6 -36
51 -36 67 0 20 10 10 25 -27z m65 -25 c16 -18 30 -44 30 -58 0 -24 -1 -24 -30
10 -16 19 -30 38 -30 42 0 3 -3 13 -6 22 -10 25 4 19 36 -16z m386 -225 c-8
-8 -36 5 -36 17 0 7 6 7 21 0 11 -7 18 -14 15 -17z m1924 -19 c0 -8 -4 -12
-10 -9 -5 3 -10 10 -10 16 0 5 5 9 10 9 6 0 10 -7 10 -16z m-747 -1018 c9 -24
-4 -84 -22 -100 -9 -9 -36 -22 -59 -30 -36 -13 -42 -13 -42 -1 0 8 5 17 10 20
6 3 10 14 10 25 0 24 61 99 81 99 9 1 19 -5 22 -13z"/>
<path d="M4086 2755 c4 -8 8 -15 10 -15 2 0 4 7 4 15 0 8 -4 15 -10 15 -5 0
-7 -7 -4 -15z"/>
<path d="M4082 2638 c-16 -16 -15 -29 1 -25 6 1 11 -4 10 -10 -4 -19 17 -16
24 3 8 22 -19 48 -35 32z"/>
<path d="M1124 3519 l-29 -31 33 16 c17 9 32 23 32 31 0 20 -2 19 -36 -16z"/>
<path d="M1092 3360 c0 -14 2 -19 5 -12 2 6 2 18 0 25 -3 6 -5 1 -5 -13z"/>
<path d="M1060 3315 c-10 -12 -10 -15 4 -15 9 0 16 7 16 15 0 8 -2 15 -4 15
-2 0 -9 -7 -16 -15z"/>
<path d="M732 2933 c-1 -34 1 -44 8 -33 12 18 13 80 2 80 -4 0 -9 -21 -10 -47z"/>
<path d="M2112 3070 c0 -14 2 -19 5 -12 2 6 2 18 0 25 -3 6 -5 1 -5 -13z"/>
<path d="M2065 3030 c-3 -5 -1 -10 4 -10 6 0 11 5 11 10 0 6 -2 10 -4 10 -3 0
-8 -4 -11 -10z"/>
<path d="M2000 2579 c-9 -16 -8 -26 5 -45 18 -28 23 -29 61 -9 16 8 39 15 52
15 32 0 28 27 -8 45 -43 22 -97 20 -110 -6z"/>
<path d="M2160 2234 c-41 -7 -83 -11 -94 -8 -27 9 -165 -57 -166 -78 0 -23 10
-22 90 3 68 21 121 19 150 -6 23 -19 59 -28 73 -17 20 16 74 24 82 12 4 -6 17
-15 29 -20 17 -7 17 -9 4 -9 -22 -1 -24 -39 -4 -66 11 -16 23 -17 91 -12 57 4
83 11 99 25 11 11 40 31 64 46 36 23 41 29 32 46 -6 12 -25 21 -48 25 -20 3
-55 10 -77 16 -22 6 -67 15 -100 21 -33 5 -64 14 -70 18 -20 16 -82 18 -155 4z"/>
<path d="M2157 1993 c-4 -3 -7 -15 -7 -25 0 -10 -11 -23 -24 -28 -32 -12 -39
-25 -21 -40 18 -15 162 -5 191 12 5 4 27 3 48 -2 l38 -8 -21 19 c-12 11 -21
24 -21 29 0 21 -54 43 -114 47 -34 1 -66 0 -69 -4z"/>
<path d="M2091 1500 l-44 -5 82 -63 c100 -77 111 -82 111 -49 0 13 -7 30 -15
37 -14 11 -11 16 17 41 17 16 30 31 27 33 -8 7 -134 12 -178 6z"/>
</g>
</svg>
